<svg version="1.2" xmlns="http://www.w3.org/2000/svg" viewBox="0 0 131 39" width="131" height="39">
	<title>sector-logo (1)-svg</title>
	<defs>
		<clipPath clipPathUnits="userSpaceOnUse" id="cp1">
			<path d="m0 0.13h30.12v30.39h-30.12z"/>
		</clipPath>
		<clipPath clipPathUnits="userSpaceOnUse" id="cp2">
			<path d="m0 21h31v18h-31z"/>
		</clipPath>
		<clipPath clipPathUnits="userSpaceOnUse" id="cp3">
			<path d="m15.5 44.86l-14.63-14.63 14.63-14.63 14.63 14.63z"/>
		</clipPath>
		<clipPath clipPathUnits="userSpaceOnUse" id="cp4">
			<path d="m15.5 44.86l-14.63-14.63 14.63-14.63 14.63 14.63z"/>
		</clipPath>
		<clipPath clipPathUnits="userSpaceOnUse" id="cp5">
			<path d=""/>
		</clipPath>
		<clipPath clipPathUnits="userSpaceOnUse" id="cp6">
			<path d="m11 12h20v19h-20z"/>
		</clipPath>
		<clipPath clipPathUnits="userSpaceOnUse" id="cp7">
			<path d="m12.02 12.33h18.09v18.1h-18.09z"/>
		</clipPath>
	</defs>
	<style>
		.s0 { fill: #00c2cb } 
		.s1 { fill: #004aad } 
		.s2 { fill: #ffffff } 
		.s3 { fill: #191919 } 
	</style>
	<g id="Clip-Path" clip-path="url(#cp1)">
		<g id="Layer">
			<path id="Layer" class="s0" d="m-0.3 0.1v9.3c0 11.7 9.5 21.1 21.1 21.1h9.3v-9.3c0-11.6-9.4-21.1-21.1-21.1z"/>
		</g>
	</g>
	<g id="Clip-Path" clip-path="url(#cp2)">
		<g id="Layer">
			<g id="Clip-Path" clip-path="url(#cp3)">
				<g id="Layer">
					<g id="Clip-Path" clip-path="url(#cp4)">
						<g id="Layer">
							<path id="Layer" class="s1" d="m0.9 30.2l4.4-4.4c5.7-5.7 14.8-5.7 20.4 0l4.4 4.4-4.4 4.5c-5.6 5.6-14.7 5.6-20.4 0z"/>
						</g>
					</g>
				</g>
			</g>
		</g>
	</g>
	<g id="Clip-Path" clip-path="url(#cp5)">
		<g id="Layer">
			<g id="Layer">
				<g id="Clip-Path" clip-path="url(#cp6)">
					<g id="Layer">
						<g id="Clip-Path" clip-path="url(#cp7)">
							<g id="Layer">
								<path id="Layer" class="s2" d="m12 21.5v-0.3c0-4.9 4-8.9 8.9-8.9h0.3c4.9 0 8.9 4 8.9 9v9.1q0 0 0 0h-9.2c-4.9 0-8.9-4-8.9-8.9z"/>
							</g>
						</g>
					</g>
				</g>
			</g>
		</g>
	</g>
	<g id="Layer">
		<g id="Layer">
			<g id="Layer">
				<path id="Layer" class="s3" d="m45.1 35.2c4.3 0 7.8-2.6 7.8-6.8 0-7.5-10.9-6-10.9-10.3 0-1.4 1.2-2.4 2.8-2.4 1.5 0 2.9 0.9 3.7 2.4l3.3-2c-1.5-2.8-4.1-4-6.8-4-3.8 0-7 2.3-7 6.2 0 7.3 10.8 5.8 10.8 10.4 0 1.6-1.3 2.9-3.7 2.9-2.4 0-4.3-1.2-4.6-4l-4 1c0.7 4.4 4.6 6.6 8.6 6.6z"/>
			</g>
		</g>
	</g>
	<g id="Layer">
		<g id="Layer">
			<g id="Layer">
				<path id="Layer" fill-rule="evenodd" class="s3" d="m54 27c0-4.1 2.4-8.3 7.8-8.3 5.6 0 7.4 4.5 7.4 8 0 0.7-0.1 1.3-0.2 1.5h-10.9c0.4 2.1 1.5 3.5 4 3.5 1.4 0 2.7-0.4 3.8-1.7l2.7 2.4c-1.7 1.9-3.9 2.8-6.5 2.8-5.5 0-8.1-3.9-8.1-8.2zm11.4-1.6c-0.3-2.2-1.6-3.4-3.6-3.4-2.3 0-3.3 1.5-3.7 3.4z"/>
			</g>
		</g>
	</g>
	<g id="Layer">
		<g id="Layer">
			<g id="Layer">
				<path id="Layer" class="s3" d="m78 35.2c3.2 0 5.7-1.7 6.7-4.7l-3.5-1.3c-0.4 1.5-1.6 2.5-3.2 2.5-2.7 0-3.7-2.3-3.7-4.7 0-2.4 1-4.8 3.7-4.8 1.6 0 2.8 1.1 3.2 2.6l3.7-1.4c-1.2-3.2-3.7-4.7-6.9-4.7-5.2 0-7.6 4.1-7.6 8.3 0 4.2 2.5 8.2 7.6 8.2z"/>
			</g>
		</g>
	</g>
	<g id="Layer">
		<g id="Layer">
			<g id="Layer">
				<path id="Layer" class="s3" d="m92.7 35.2c1.1 0 2.3-0.2 2.8-0.5v-3.5c-0.5 0.3-1.4 0.6-2.2 0.6-1 0-1.8-0.4-1.8-2v-7.5h4v-3.3h-4v-6.7l-3.7 2.8v3.9h-2.7v3.3h2.6v8.2c0 2.9 1.9 4.7 5 4.7z"/>
			</g>
		</g>
	</g>
	<g id="Layer">
		<g id="Layer">
			<g id="Layer">
				<path id="Layer" fill-rule="evenodd" class="s3" d="m96.9 26.9c0-4.4 3.2-8.2 8.1-8.2 4.9 0 8.1 3.8 8.1 8.2 0 4.5-3.2 8.3-8.1 8.3-4.9 0-8.1-3.8-8.1-8.3zm12.2 0c0-2.6-1.2-4.8-4.1-4.8-2.9 0-4.1 2.2-4.1 4.8 0 2.6 1.2 5 4.1 5 2.9 0 4.1-2.4 4.1-5z"/>
			</g>
		</g>
	</g>
	<g id="Layer">
		<g id="Layer">
			<g id="Layer">
				<path id="Layer" class="s3" d="m115.6 34.9h3.8v-6.7c0-4 1.9-5.7 3.7-5.7q0.9 0 1.7 0.5l1.8-3.1c-0.8-0.8-1.9-1.2-2.9-1.2-1.8 0-3.6 1.1-4.3 3v-2.7h-3.8z"/>
			</g>
		</g>
	</g>
	<g id="Layer">
		<g id="Layer">
			<g id="Layer">
				<path id="Layer" class="s0" d="m127.2 34.7h3.5v-3.8h-3.5z"/>
			</g>
		</g>
	</g>
</svg>