<svg xmlns="http://www.w3.org/2000/svg" xmlns:xlink="http://www.w3.org/1999/xlink" width="500" zoomAndPan="magnify" viewBox="0 0 375 374.999991" height="500" preserveAspectRatio="xMidYMid meet" version="1.0"><defs><clipPath id="7375f8df06"><path d="M 266 132.179688 L 343 132.179688 L 343 243.179688 L 266 243.179688 Z M 266 132.179688 " clip-rule="nonzero"/></clipPath><clipPath id="b9ccd7d2ed"><path d="M 353 132.179688 L 368.636719 132.179688 L 368.636719 147 L 353 147 Z M 353 132.179688 " clip-rule="nonzero"/></clipPath><clipPath id="7e1594f04d"><path d="M 353 168 L 368.636719 168 L 368.636719 243.179688 L 353 243.179688 Z M 353 168 " clip-rule="nonzero"/></clipPath><clipPath id="b22997ee05"><path d="M 180 132.179688 L 257 132.179688 L 257 243.179688 L 180 243.179688 Z M 180 132.179688 " clip-rule="nonzero"/></clipPath><clipPath id="1529c673c1"><path d="M 93 169 L 170 169 L 170 243.179688 L 93 243.179688 Z M 93 169 " clip-rule="nonzero"/></clipPath><clipPath id="0af40ddc95"><path d="M 6.390625 169 L 83 169 L 83 243.179688 L 6.390625 243.179688 Z M 6.390625 169 " clip-rule="nonzero"/></clipPath></defs><g clip-path="url(#7375f8df06)"><path fill="#1c1e1a" d="M 337.675781 173.976562 C 336.074219 172.402344 334.199219 171.167969 332.113281 170.308594 C 329.9375 169.417969 327.644531 168.972656 325.296875 168.972656 L 281.5 168.972656 L 281.5 139.289062 C 281.5 137.40625 280.753906 135.625 279.378906 134.269531 C 277.992188 132.933594 276.113281 132.179688 274.199219 132.179688 C 272.289062 132.179688 270.410156 132.933594 269.054688 134.269531 C 267.679688 135.605469 266.914062 137.40625 266.914062 139.289062 L 266.914062 225.957031 C 266.914062 228.269531 267.386719 230.496094 268.289062 232.621094 C 269.175781 234.660156 270.445312 236.496094 272.042969 238.054688 C 273.644531 239.632812 275.523438 240.863281 277.609375 241.722656 C 279.765625 242.613281 282.058594 243.074219 284.421875 243.074219 L 325.261719 243.074219 C 327.628906 243.074219 329.921875 242.628906 332.078125 241.722656 C 334.164062 240.847656 336.042969 239.613281 337.640625 238.054688 C 339.242188 236.496094 340.507812 234.660156 341.398438 232.621094 C 342.316406 230.515625 342.769531 228.269531 342.769531 225.957031 L 342.769531 186.078125 C 342.769531 183.78125 342.300781 181.535156 341.398438 179.410156 C 340.507812 177.371094 339.242188 175.535156 337.640625 173.976562 Z M 328.25 225.957031 C 328.25 227.550781 326.914062 228.851562 325.28125 228.851562 L 284.441406 228.851562 C 282.804688 228.851562 281.46875 227.550781 281.46875 225.957031 L 281.46875 183.164062 L 325.261719 183.164062 C 326.898438 183.164062 328.234375 184.464844 328.234375 186.058594 L 328.234375 225.9375 Z M 328.25 225.957031 " fill-opacity="1" fill-rule="evenodd"/></g><g clip-path="url(#b9ccd7d2ed)"><path fill="#1c1e1a" d="M 356.921875 132.179688 L 365.179688 132.179688 C 366.917969 132.179688 368.328125 133.550781 368.328125 135.246094 L 368.328125 143.316406 C 368.328125 145.015625 366.917969 146.386719 365.179688 146.386719 L 356.921875 146.386719 C 355.183594 146.386719 353.777344 145.015625 353.777344 143.316406 L 353.777344 135.246094 C 353.777344 133.550781 355.183594 132.179688 356.921875 132.179688 Z M 356.921875 132.179688 " fill-opacity="1" fill-rule="nonzero"/></g><g clip-path="url(#7e1594f04d)"><path fill="#1c1e1a" d="M 355.792969 171.03125 C 357.164062 169.691406 358.988281 168.957031 360.9375 168.957031 L 360.9375 168.972656 C 362.867188 168.972656 364.746094 169.726562 366.085938 171.046875 C 367.441406 172.367188 368.222656 174.199219 368.222656 176.066406 L 368.222656 235.964844 C 368.222656 237.847656 367.457031 239.648438 366.085938 240.984375 C 364.726562 242.304688 362.886719 243.058594 360.9375 243.058594 C 358.988281 243.058594 357.164062 242.320312 355.792969 240.984375 C 354.402344 239.648438 353.65625 237.867188 353.65625 235.964844 L 353.65625 176.050781 C 353.65625 174.183594 354.4375 172.347656 355.792969 171.03125 Z M 355.792969 171.03125 " fill-opacity="1" fill-rule="nonzero"/></g><g clip-path="url(#b22997ee05)"><path fill="#1c1e1a" d="M 245.375 170.328125 C 247.460938 171.183594 249.339844 172.417969 250.9375 173.996094 C 252.535156 175.554688 253.804688 177.386719 254.691406 179.425781 C 255.597656 181.550781 256.066406 183.796875 256.066406 186.09375 L 256.066406 225.972656 C 256.066406 228.285156 255.597656 230.53125 254.691406 232.640625 C 253.804688 234.679688 252.535156 236.511719 250.9375 238.070312 C 249.339844 239.632812 247.460938 240.867188 245.375 241.738281 C 243.21875 242.648438 240.921875 243.09375 238.558594 243.09375 L 197.71875 243.09375 C 195.355469 243.09375 193.058594 242.628906 190.902344 241.738281 C 188.816406 240.882812 186.941406 239.648438 185.339844 238.070312 C 183.742188 236.511719 182.472656 234.679688 181.585938 232.640625 C 180.679688 230.515625 180.210938 228.285156 180.210938 225.972656 L 180.210938 139.308594 C 180.210938 137.421875 180.976562 135.625 182.351562 134.285156 C 183.707031 132.949219 185.582031 132.195312 187.496094 132.195312 C 189.410156 132.195312 191.285156 132.96875 192.640625 134.285156 C 194.015625 135.640625 194.761719 137.421875 194.761719 139.308594 L 194.761719 168.988281 L 238.558594 168.988281 C 240.90625 168.988281 243.199219 169.4375 245.375 170.328125 Z M 238.542969 228.867188 C 240.175781 228.867188 241.515625 227.566406 241.515625 225.972656 L 241.496094 225.957031 L 241.496094 186.078125 C 241.496094 184.484375 240.160156 183.179688 238.523438 183.179688 L 194.730469 183.179688 L 194.730469 225.972656 C 194.730469 227.566406 196.066406 228.867188 197.703125 228.867188 Z M 238.542969 228.867188 " fill-opacity="1" fill-rule="evenodd"/></g><g clip-path="url(#1529c673c1)"><path fill="#1c1e1a" d="M 162.027344 169.023438 C 160.085938 169.027344 158.265625 169.765625 156.898438 171.097656 C 155.539062 172.417969 154.757812 174.25 154.757812 176.121094 L 154.757812 226.007812 C 154.757812 227.601562 153.417969 228.902344 151.785156 228.902344 L 110.964844 228.902344 C 109.328125 228.902344 107.992188 227.601562 107.992188 226.007812 L 107.992188 176.121094 C 107.992188 174.21875 107.242188 172.433594 105.851562 171.097656 C 104.476562 169.761719 102.652344 169.023438 100.707031 169.023438 C 98.757812 169.023438 96.933594 169.761719 95.558594 171.097656 C 94.203125 172.417969 93.4375 174.25 93.4375 176.121094 L 93.4375 226.007812 C 93.4375 228.320312 93.90625 230.546875 94.8125 232.671875 C 95.699219 234.710938 96.949219 236.527344 98.566406 238.105469 C 100.167969 239.664062 102.042969 240.898438 104.128906 241.773438 C 106.304688 242.664062 108.597656 243.128906 110.964844 243.128906 L 151.785156 243.128906 C 154.148438 243.128906 156.445312 242.664062 158.601562 241.773438 C 160.6875 240.917969 162.566406 239.683594 164.164062 238.105469 C 165.765625 236.527344 167.03125 234.710938 167.917969 232.671875 C 168.839844 230.566406 169.292969 228.320312 169.292969 226.007812 L 169.292969 176.121094 C 169.292969 174.25 168.511719 172.417969 167.15625 171.097656 C 165.804688 169.78125 163.949219 169.027344 162.027344 169.023438 Z M 162.027344 169.023438 " fill-opacity="1" fill-rule="nonzero"/></g><g clip-path="url(#0af40ddc95)"><path fill="#1c1e1a" d="M 75.304688 183.230469 L 24.226562 183.230469 C 22.589844 183.230469 21.25 184.535156 21.25 186.128906 L 21.25 226.074219 C 21.25 227.667969 22.589844 228.972656 24.226562 228.972656 L 75.304688 228.972656 C 77.21875 228.972656 79.09375 229.726562 80.449219 231.046875 C 81.824219 232.382812 82.589844 234.164062 82.589844 236.066406 C 82.589844 237.96875 81.824219 239.75 80.449219 241.085938 C 79.09375 242.425781 77.21875 243.179688 75.304688 243.179688 L 24.226562 243.179688 C 21.859375 243.179688 19.566406 242.714844 17.410156 241.824219 C 15.304688 240.96875 13.445312 239.734375 11.847656 238.15625 C 10.246094 236.597656 8.976562 234.765625 8.089844 232.726562 C 7.167969 230.601562 6.699219 228.371094 6.699219 226.058594 L 6.699219 186.160156 C 6.699219 183.847656 7.167969 181.621094 8.089844 179.496094 C 8.976562 177.457031 10.246094 175.621094 11.847656 174.0625 C 13.445312 172.503906 15.324219 171.253906 17.410156 170.394531 C 19.566406 169.488281 21.859375 169.042969 24.226562 169.042969 L 75.304688 169.042969 C 77.25 169.042969 79.078125 169.777344 80.449219 171.117188 C 81.824219 172.453125 82.589844 174.234375 82.589844 176.136719 C 82.589844 178.039062 81.824219 179.820312 80.449219 181.15625 C 79.09375 182.476562 77.21875 183.230469 75.304688 183.230469 Z M 75.304688 183.230469 " fill-opacity="1" fill-rule="nonzero"/></g></svg>